{
	"accessors" : 
	[
		{
			"bufferView" : 2,
			"byteOffset" : 0,
			"componentType" : 5126,
			"count" : 7122,
			"max" : 
			[
				1,
				1,
				1,
				1
			],
			"min" : 
			[
				0,
				0.05284162983298302,
				0,
				1
			],
			"name" : "accessor_color_m0-PolyPaper21_-2174058",
			"type" : "VEC4"
		},
		{
			"bufferView" : 2,
			"byteOffset" : 113952,
			"componentType" : 5126,
			"count" : 444,
			"max" : 
			[
				0.6800203323364258,
				0.6800203323364258,
				0.6800203323364258,
				0.2509804
			],
			"min" : 
			[
				0.6800203323364258,
				0.6800203323364258,
				0.6800203323364258,
				0.2509804
			],
			"name" : "accessor_color_m1-PolyGlass24_-2145488",
			"type" : "VEC4"
		},
		{
			"bufferView" : 2,
			"byteOffset" : 121056,
			"componentType" : 5126,
			"count" : 9992,
			"max" : 
			[
				1,
				1,
				1,
				1
			],
			"min" : 
			[
				0,
				0.05284162983298302,
				0,
				1
			],
			"name" : "accessor_color_m2-PolyPaper12_-2171494",
			"type" : "VEC4"
		},
		{
			"bufferView" : 0,
			"byteOffset" : 0,
			"componentType" : 5123,
			"count" : 11118,
			"max" : 
			[
				7121
			],
			"min" : 
			[
				0
			],
			"name" : "accessor_indices_0_m0-PolyPaper21_-2174058",
			"type" : "SCALAR"
		},
		{
			"bufferView" : 0,
			"byteOffset" : 22236,
			"componentType" : 5123,
			"count" : 672,
			"max" : 
			[
				443
			],
			"min" : 
			[
				0
			],
			"name" : "accessor_indices_0_m1-PolyGlass24_-2145488",
			"type" : "SCALAR"
		},
		{
			"bufferView" : 0,
			"byteOffset" : 23580,
			"componentType" : 5123,
			"count" : 15312,
			"max" : 
			[
				9991
			],
			"min" : 
			[
				0
			],
			"name" : "accessor_indices_0_m2-PolyPaper12_-2171494",
			"type" : "SCALAR"
		},
		{
			"bufferView" : 1,
			"byteOffset" : 85464,
			"componentType" : 5126,
			"count" : 7122,
			"max" : 
			[
				1,
				1,
				1
			],
			"min" : 
			[
				-1,
				-1,
				-1
			],
			"name" : "accessor_normal_m0-PolyPaper21_-2174058",
			"type" : "VEC3"
		},
		{
			"bufferView" : 1,
			"byteOffset" : 176256,
			"componentType" : 5126,
			"count" : 444,
			"max" : 
			[
				0.989746,
				1,
				0.9659265
			],
			"min" : 
			[
				-0.9897453000000001,
				-1,
				-0.9659263
			],
			"name" : "accessor_normal_m1-PolyGlass24_-2145488",
			"type" : "VEC3"
		},
		{
			"bufferView" : 1,
			"byteOffset" : 301488,
			"componentType" : 5126,
			"count" : 9992,
			"max" : 
			[
				1,
				1,
				1
			],
			"min" : 
			[
				-1,
				-1,
				-1
			],
			"name" : "accessor_normal_m2-PolyPaper12_-2171494",
			"type" : "VEC3"
		},
		{
			"bufferView" : 1,
			"byteOffset" : 0,
			"componentType" : 5126,
			"count" : 7122,
			"max" : 
			[
				0.6800334,
				1.779987,
				2.01001
			],
			"min" : 
			[
				-1.325036,
				0.4800366,
				-1.000015
			],
			"name" : "accessor_position_m0-PolyPaper21_-2174058",
			"type" : "VEC3"
		},
		{
			"bufferView" : 1,
			"byteOffset" : 170928,
			"componentType" : 5126,
			"count" : 444,
			"max" : 
			[
				-0.3020564,
				1.180015,
				1.13234
			],
			"min" : 
			[
				-0.3600348,
				1.020015,
				1.074362
			],
			"name" : "accessor_position_m1-PolyGlass24_-2145488",
			"type" : "VEC3"
		},
		{
			"bufferView" : 1,
			"byteOffset" : 181584,
			"componentType" : 5126,
			"count" : 9992,
			"max" : 
			[
				0.7100211,
				2.150023,
				2.070039
			],
			"min" : 
			[
				-1.40002,
				0.4299843,
				-1.130022
			],
			"name" : "accessor_position_m2-PolyPaper12_-2171494",
			"type" : "VEC3"
		}
	],
	"asset" : 
	{
		"copyright" : "Unknown",
		"generator" : "glTF 1-to-2 Upgrader for Google Blocks",
		"version" : "2.0"
	},
	"bufferViews" : 
	[
		{
			"buffer" : 0,
			"byteLength" : 54204,
			"byteOffset" : 0,
			"name" : "ushortBufferView",
			"target" : 34963
		},
		{
			"buffer" : 0,
			"byteLength" : 421392,
			"byteOffset" : 54204,
			"byteStride" : 12,
			"name" : "vec3BufferView",
			"target" : 34962
		},
		{
			"buffer" : 0,
			"byteLength" : 280928,
			"byteOffset" : 475596,
			"byteStride" : 16,
			"name" : "vec4BufferView",
			"target" : 34962
		}
	],
	"buffers" : 
	[
		{
			"byteLength" : 756524,
			"name" : "model",
			"uri" : "model.bin"
		}
	],
	"materials" : 
	[
		{
			"alphaMode" : "OPAQUE",
			"doubleSided" : false,
			"name" : "BlocksPaper",
			"pbrMetallicRoughness" : 
			{
				"baseColorFactor" : 
				[
					1,
					1,
					1,
					1
				],
				"metallicFactor" : 0,
				"roughnessFactor" : 0.6
			}
		},
		{
			"alphaMode" : "BLEND",
			"doubleSided" : false,
			"name" : "BlocksGlass",
			"pbrMetallicRoughness" : 
			{
				"baseColorFactor" : 
				[
					0.2,
					0.2,
					1,
					0.3
				],
				"metallicFactor" : 1,
				"roughnessFactor" : 0.4
			}
		},
		{
			"alphaMode" : "OPAQUE",
			"doubleSided" : true,
			"name" : "BlocksGem",
			"pbrMetallicRoughness" : 
			{
				"baseColorFactor" : 
				[
					1,
					0.4,
					1,
					1
				],
				"metallicFactor" : 0,
				"roughnessFactor" : 0.1
			}
		}
	],
	"meshes" : 
	[
		{
			"name" : "mesh_m0-PolyPaper21_-2174058",
			"primitives" : 
			[
				{
					"attributes" : 
					{
						"COLOR_0" : 0,
						"NORMAL" : 6,
						"POSITION" : 9
					},
					"indices" : 3,
					"material" : 0,
					"mode" : 4
				}
			]
		},
		{
			"name" : "mesh_m1-PolyGlass24_-2145488",
			"primitives" : 
			[
				{
					"attributes" : 
					{
						"COLOR_0" : 1,
						"NORMAL" : 7,
						"POSITION" : 10
					},
					"indices" : 4,
					"material" : 1,
					"mode" : 4
				}
			]
		},
		{
			"name" : "mesh_m2-PolyPaper12_-2171494",
			"primitives" : 
			[
				{
					"attributes" : 
					{
						"COLOR_0" : 2,
						"NORMAL" : 8,
						"POSITION" : 11
					},
					"indices" : 5,
					"material" : 0,
					"mode" : 4
				}
			]
		}
	],
	"nodes" : 
	[
		{
			"matrix" : 
			[
				1,
				0,
				0,
				0,
				0,
				1,
				0,
				0,
				0,
				0,
				1,
				0,
				0,
				0,
				0,
				1
			],
			"mesh" : 2,
			"name" : "node_MeshObject-1078853760-PolyPaper12"
		},
		{
			"matrix" : 
			[
				1,
				0,
				0,
				0,
				0,
				1,
				0,
				0,
				0,
				0,
				1,
				0,
				0,
				0,
				0,
				1
			],
			"mesh" : 1,
			"name" : "node_MeshObject-302025344-PolyGlass24"
		},
		{
			"matrix" : 
			[
				1,
				0,
				0,
				0,
				0,
				1,
				0,
				0,
				0,
				0,
				1,
				0,
				0,
				0,
				0,
				1
			],
			"mesh" : 0,
			"name" : "node_MeshObject1627648128-PolyPaper21"
		}
	],
	"scene" : 0,
	"scenes" : 
	[
		{
			"extras" : {},
			"name" : "defaultScene",
			"nodes" : 
			[
				2,
				1,
				0
			]
		}
	]
}